<svg width="446" height="566" viewBox="0 0 446 566" fill="none" xmlns="http://www.w3.org/2000/svg">
<g opacity="0.8">
<path fill-rule="evenodd" clip-rule="evenodd" d="M255.057 128.201C278.947 129.187 280.666 148.027 280.456 155.15L280.438 155.656V155.656L280.414 156.116V156.116L280.386 156.528V156.528L280.357 156.889V156.889L280.315 157.33V157.33L280.29 157.552V157.552L280.252 157.847V157.847C280.185 158.485 280.112 159.111 280.034 159.725L280.244 159.555C280.279 159.527 280.315 159.499 280.351 159.471L280.57 159.306C281.759 158.435 283.217 157.784 284.604 158.536C286.457 159.54 286.794 162.46 286.234 164.287C285.532 166.257 284.369 168.03 282.841 169.457C280.983 171.32 278.88 172.92 276.59 174.212C271.227 188.22 262.121 191.392 257.442 192.07L257.063 192.121C257.001 192.129 256.941 192.136 256.881 192.143L256.534 192.178C256.422 192.189 256.315 192.197 256.211 192.205L255.911 192.224V192.224L255.637 192.236V192.236L255.389 192.243V192.243L255.168 192.245V192.245L254.891 192.242V192.242L254.58 192.229V192.229L254.473 192.221V192.221C243.581 192.038 237.306 185.222 233.696 177.694L233.453 177.18C233.374 177.008 233.296 176.836 233.22 176.664L232.994 176.146C232.957 176.06 232.92 175.973 232.883 175.887L232.669 175.368C232.634 175.282 232.599 175.195 232.565 175.109L232.362 174.59V174.59C222.836 168.32 221.62 163.417 221.818 160.921L221.839 160.707C221.843 160.673 221.847 160.639 221.852 160.605L221.882 160.41V160.41L221.916 160.228C221.929 160.17 221.941 160.113 221.955 160.059L221.996 159.903V159.903L222.038 159.761V159.761L222.081 159.632V159.632L222.144 159.465V159.465L222.202 159.328V159.328L222.266 159.196V159.196L222.317 159.105C223.521 156.949 224.951 156.689 226.183 157.084L226.354 157.144C226.382 157.154 226.41 157.165 226.438 157.176L226.604 157.247C226.631 157.259 226.659 157.272 226.686 157.285L226.847 157.365V157.365L227.005 157.451V157.451L227.159 157.541V157.541L227.309 157.636V157.636L227.454 157.734V157.734L227.595 157.834V157.834L227.797 157.988V157.988L227.925 158.091V158.091L228.048 158.194V158.194L228.165 158.297V158.297L228.381 158.496V158.496L228.57 158.683V158.683L228.767 158.89V158.89L228.916 159.056V159.056L228.871 158.447V158.447L228.829 157.686V157.686C228.094 132.252 246.49 128.731 252.896 128.265L253.318 128.237V128.237L253.7 128.218C253.76 128.216 253.819 128.213 253.875 128.211L254.193 128.202V128.202L254.687 128.197V128.197L254.86 128.198V128.198L255.057 128.201Z" fill="#FFDEB7"/>
<path d="M224.678 161.489C224.678 161.489 226.876 160.101 230.223 167.517" stroke="#000001" stroke-width="2" stroke-linecap="round" stroke-linejoin="round"/>
<path d="M277.831 168.045C277.831 168.045 279.554 162.953 283.597 162.714" stroke="#000001" stroke-width="2" stroke-linecap="round" stroke-linejoin="round"/>
<ellipse cx="242.409" cy="162.011" rx="1.49941" ry="2.71803" transform="rotate(1 242.409 162.011)" fill="#102030"/>
<ellipse cx="264.676" cy="162.473" rx="1.49941" ry="2.71804" transform="rotate(1 264.676 162.473)" fill="#102030"/>
<path d="M237.52 155.071L245.301 154.966" stroke="#000001" stroke-width="2" stroke-linecap="round" stroke-linejoin="round"/>
<path d="M269.806 155.657L262.033 155.286" stroke="#000001" stroke-width="2" stroke-linecap="round" stroke-linejoin="round"/>
<path fill-rule="evenodd" clip-rule="evenodd" d="M281.602 170.751C282.618 173.712 284.423 176.409 286.7 178.512C290.292 181.716 292.44 186.232 292.66 191.04C292.787 193.607 292.202 195.927 291.492 198.219L291.295 198.843V198.843L290.718 200.643C290.09 202.633 289.522 204.659 289.396 206.862C289.237 209.609 290.133 211.778 291.304 213.792L291.542 214.193C291.582 214.26 291.623 214.326 291.663 214.392L291.91 214.788V214.788L292.16 215.182V215.182L293.084 216.61L293.395 217.1V217.1L293.7 217.593C294.601 219.078 295.378 220.628 295.707 222.417C297.462 231.973 291.472 236.968 284.087 240.476L283.544 240.731V240.731L282.997 240.98V240.98L282.446 241.224V241.224L281.892 241.464V241.464L281.334 241.7V241.7L280.775 241.931V241.931L280.214 242.159V242.159L279.652 242.384V242.384L279.089 242.605V242.605L277.893 243.067V243.067L277.296 243.293C269.069 246.313 260.312 247.62 251.561 247.135L247.583 246.947V246.947L246.157 246.874V246.874L245.224 246.822V246.822L244.304 246.766C244.151 246.757 243.999 246.747 243.848 246.737L242.944 246.675V246.675L242.051 246.607V246.607L241.166 246.533C235.001 245.993 229.41 244.932 222.763 242.1C218.012 240.079 213.66 236.841 211.025 232.397C208.389 227.953 207.68 222.235 209.874 217.555C210.54 216.125 211.449 214.818 212.443 213.56L212.845 213.059C212.913 212.976 212.98 212.893 213.049 212.81L213.46 212.316V212.316L214.913 210.598C214.982 210.516 215.05 210.435 215.119 210.353L215.526 209.861C217.341 207.643 218.927 205.349 219.37 202.556C219.656 200.749 219.398 199.031 218.993 197.342L218.861 196.809V196.809L218.722 196.278V196.278L218.293 194.701C217.9 193.234 217.554 191.766 217.523 190.257C217.475 187.986 218.443 185.73 219.561 183.683L219.821 183.215V183.215L220.085 182.754V182.754L220.48 182.079V182.079L220.74 181.641V181.641C221.036 181.144 221.343 180.648 221.655 180.152L222.463 178.873C222.643 178.588 222.823 178.302 223.001 178.016L223.267 177.585L223.616 177.011C224.937 174.802 226.083 172.528 226.502 170.079C227.977 171.509 229.897 173.052 232.383 174.688L232.585 175.207V175.207L232.796 175.726C233.01 176.245 233.236 176.763 233.474 177.278L233.716 177.793C233.757 177.878 233.798 177.964 233.84 178.049L234.094 178.56C237.716 185.695 243.827 191.997 254.125 192.314L254.499 192.323V192.323L254.645 192.334V192.334L254.827 192.342V192.342L255.091 192.347L255.473 192.344V192.344L255.696 192.337V192.337L255.939 192.326V192.326L256.202 192.31V192.31L256.483 192.287C256.532 192.283 256.581 192.279 256.631 192.274L256.939 192.241C257.045 192.229 257.153 192.215 257.264 192.201L257.606 192.152C257.664 192.143 257.723 192.133 257.783 192.124L258.148 192.061C262.985 191.175 271.499 187.669 276.612 174.315C278.364 173.328 280.006 172.16 281.512 170.831L281.602 170.751ZM237.106 156.592L236.44 156.898V156.898C236.263 156.977 236.088 157.054 235.915 157.128L235.448 157.326V157.326L235.026 157.499V157.499L234.433 157.732V157.732L234.124 157.85V157.85L233.863 157.947V157.947L233.357 158.129V158.129L232.987 158.257V158.257L232.59 158.39V158.39L232.095 158.55V158.55L231.872 158.619V158.619L231.449 158.745V158.745L231.057 158.858V158.858L230.73 158.948V158.948L230.282 159.064V159.064L229.898 159.158V159.158L229.488 159.251V159.251L229.167 159.316L228.938 159.157L228.938 159.159L228.731 158.93V158.93L228.566 158.759V158.759L228.381 158.578C228.315 158.515 228.245 158.451 228.172 158.386C227.644 157.915 226.923 157.395 226.121 157.16L225.948 157.114L225.826 157.028C224.706 129.051 245.302 125.784 252.338 125.482L252.822 125.465C252.899 125.463 252.973 125.461 253.046 125.46L253.454 125.455V125.455L253.807 125.455V125.455L254.228 125.464V125.464L254.51 125.474V125.474L254.651 125.482V125.482C283.468 124.801 284.352 147.866 283.82 155.728L283.779 156.269V156.269L283.736 156.754V156.754L283.692 157.18C283.685 157.245 283.678 157.308 283.671 157.369L283.612 157.839V157.839L283.567 158.153V158.153L283.542 158.31V158.31C283.031 158.172 282.22 158.528 281.465 158.975L281.201 159.135V159.135L280.946 159.299V159.299L280.702 159.463V159.463L280.473 159.623V159.623L280.166 159.845V159.845L279.991 159.976V159.976L279.588 160.286C266.741 157.968 259.858 149.596 256.678 144.221L256.404 143.748C256.315 143.593 256.23 143.441 256.148 143.292L255.912 142.855C255.836 142.713 255.764 142.574 255.694 142.439L255.495 142.045V142.045L255.314 141.673V141.673L255.15 141.327V141.327L255.004 141.006V141.006L254.874 140.713V140.713L254.762 140.449V140.449L254.623 140.111V140.111L254.492 139.775V139.775L254.405 139.536C254.261 139.856 254.113 140.17 253.961 140.48L253.791 140.822V140.822L253.637 141.125V141.125L253.395 141.584V141.584L253.204 141.932V141.932L252.947 142.389V142.389L252.811 142.624V142.624L252.574 143.022V143.022L252.376 143.344V143.344L252.057 143.849V143.849L251.773 144.28V144.28L251.633 144.488V144.488L251.487 144.702C251.423 144.793 251.36 144.884 251.296 144.974C251.112 145.235 250.924 145.491 250.735 145.743L250.393 146.19V146.19L250.03 146.647V146.647L249.864 146.851V146.851L249.498 147.289V147.289L249.148 147.693V147.693L248.907 147.965V147.965L248.592 148.31V148.31L248.226 148.699V148.699L247.982 148.952V148.952L247.721 149.218V149.218L247.347 149.587V149.587L247.274 149.657C247.129 149.797 246.984 149.936 246.838 150.072L246.653 150.243V150.243L246.228 150.628V150.628L245.895 150.921V150.921L245.624 151.153V151.153L245.261 151.458V151.458L244.951 151.711V151.711L244.544 152.035V152.035L244.11 152.371V152.371C243.928 152.51 243.745 152.645 243.563 152.779L243.292 152.975V152.975L242.782 153.335V153.335C242.572 153.48 242.362 153.623 242.152 153.762L241.731 154.037V154.037L241.221 154.36V154.36L240.821 154.605L240.492 154.802V154.802C240.343 154.89 240.194 154.977 240.045 155.063L239.783 155.212V155.212L239.241 155.512V155.512C238.954 155.668 238.669 155.819 238.388 155.963C238.204 156.057 238.022 156.149 237.841 156.238C237.593 156.361 237.348 156.478 237.106 156.592Z" fill="#054546"/>
<path opacity="0.1" fill-rule="evenodd" clip-rule="evenodd" d="M281.602 170.751C282.618 173.712 284.423 176.41 286.7 178.513C290.292 181.717 292.441 186.233 292.66 191.041C292.787 193.608 292.203 195.928 291.492 198.219L291.295 198.844V198.844L290.719 200.644C290.09 202.633 289.522 204.659 289.396 206.862C289.237 209.609 290.133 211.779 291.305 213.793L291.542 214.194C291.583 214.26 291.623 214.326 291.664 214.393L291.91 214.789V214.789L292.16 215.182V215.182L293.084 216.611V216.611L293.395 217.1V217.1L293.7 217.593C294.601 219.078 295.378 220.628 295.707 222.418C297.47 232.015 291.419 237.012 283.989 240.523L283.423 240.787V240.787L282.851 241.046V241.046L282.276 241.299V241.299L281.697 241.548V241.548L281.115 241.792V241.792L280.531 242.031V242.031L279.945 242.267V242.267L279.066 242.615V242.615L277.893 243.067V243.067L277.296 243.294C269.069 246.313 260.312 247.621 251.561 247.136L247.583 246.948V246.948L246.157 246.874V246.874L245.224 246.822V246.822L244.304 246.767C244.151 246.757 244 246.747 243.848 246.737L242.944 246.675V246.675L242.051 246.608V246.608L241.166 246.534C235.001 245.993 229.411 244.933 222.763 242.1C218.013 240.08 213.66 236.842 211.025 232.398C208.39 227.954 207.681 222.235 209.874 217.555C210.541 216.126 211.449 214.818 212.443 213.56L212.845 213.06C212.913 212.977 212.981 212.894 213.049 212.811L213.46 212.316V212.316L214.913 210.599C214.982 210.517 215.051 210.435 215.119 210.353L215.526 209.862C217.342 207.644 218.927 205.35 219.37 202.556C219.656 200.75 219.398 199.031 218.994 197.342L218.861 196.81V196.81L218.722 196.279V196.279L218.294 194.701C217.9 193.234 217.554 191.766 217.523 190.257C217.475 187.987 218.444 185.731 219.562 183.684L219.822 183.215V183.215L220.085 182.755V182.755L220.48 182.08V182.08L220.74 181.641V181.641C221.036 181.145 221.344 180.649 221.656 180.152L222.464 178.873C222.644 178.588 222.823 178.302 223.002 178.016L223.267 177.586L223.616 177.011C224.937 174.803 226.083 172.529 226.502 170.079C227.977 171.51 229.897 173.052 232.383 174.688L232.586 175.207V175.207L232.796 175.726C233.01 176.245 233.236 176.763 233.474 177.279L233.716 177.793C233.757 177.879 233.799 177.964 233.84 178.05L234.095 178.56C237.717 185.695 243.827 191.997 254.126 192.315L254.501 192.324V192.324L254.627 192.333V192.333L254.827 192.342V192.342L255.091 192.347L255.473 192.345V192.345L255.696 192.338V192.338L255.939 192.327V192.327L256.202 192.31V192.31L256.483 192.288C256.532 192.284 256.581 192.279 256.631 192.274L256.939 192.242C257.045 192.229 257.154 192.216 257.265 192.201L257.606 192.152C257.665 192.143 257.724 192.134 257.783 192.124L258.148 192.061C262.985 191.175 271.499 187.669 276.612 174.316C278.364 173.328 280.006 172.16 281.512 170.832L281.602 170.751Z" fill="#000001"/>
<path fill-rule="evenodd" clip-rule="evenodd" d="M242.448 188.206C245.583 190.385 249.439 191.798 254.185 191.94L254.552 191.95L254.824 191.966L255.174 191.973L255.476 191.97L255.83 191.959L256.128 191.943L256.453 191.919L256.803 191.886L257.05 191.858L257.439 191.807L257.712 191.767L257.994 191.72L258.285 191.668L258.584 191.609L258.893 191.543L259.209 191.47C259.263 191.457 259.317 191.444 259.371 191.43L259.699 191.346C259.754 191.331 259.81 191.316 259.866 191.3L260.204 191.203C260.262 191.187 260.319 191.169 260.376 191.152L260.725 191.042L261.081 190.923C261.14 190.902 261.2 190.881 261.26 190.859L261.624 190.726C261.685 190.703 261.747 190.679 261.808 190.655L262.18 190.507C263.053 190.147 263.966 189.701 264.899 189.148L264.641 203.92C264.533 210.122 259.417 215.062 253.215 214.954C247.013 214.845 242.073 209.73 242.181 203.528L242.448 188.206Z" fill="#FFDEB7"/>
<path d="M242.448 188.206C245.583 190.385 249.439 191.798 254.185 191.94L254.552 191.95L254.824 191.966L255.174 191.973L255.476 191.97L255.83 191.959L256.128 191.943L256.453 191.919L256.803 191.886L257.05 191.858L257.439 191.807L257.712 191.767L257.994 191.72L258.285 191.668L258.584 191.609L258.893 191.543L259.209 191.47C259.263 191.457 259.317 191.444 259.371 191.43L259.699 191.346C259.754 191.331 259.81 191.316 259.866 191.3L260.204 191.203C260.262 191.187 260.319 191.169 260.376 191.152L260.725 191.042L261.081 190.923C261.14 190.902 261.2 190.881 261.26 190.859L261.624 190.726C261.685 190.703 261.747 190.679 261.808 190.655L262.18 190.507" stroke="#000001" stroke-width="2" stroke-linecap="round" stroke-linejoin="round"/>
<path d="M246.998 177.695C246.998 177.695 253.827 182.914 259.365 177.13" stroke="#000001" stroke-width="2" stroke-linecap="round" stroke-linejoin="round"/>
<path d="M256.317 160.226C256.317 160.226 257.987 173.673 251.635 173.327C251.635 173.327 248.619 172.679 251.174 169.162C252.475 166.459 253.23 163.525 253.397 160.529C253.397 160.529 253.323 158.332 254.865 158.477C254.854 158.476 256.163 158.157 256.317 160.226Z" fill="#F49262"/>
<path fill-rule="evenodd" clip-rule="evenodd" d="M224.134 153.228L228.744 152.889C229.437 152.838 230.04 153.358 230.091 154.051L231.41 171.973C231.461 172.666 230.941 173.269 230.248 173.32L225.622 173.661C224.748 173.725 223.885 173.44 223.222 172.867C222.559 172.295 222.15 171.483 222.086 170.61L221.066 156.748C220.932 154.929 222.298 153.347 224.116 153.213L224.134 153.228Z" fill="#DDF3F4"/>
<path fill-rule="evenodd" clip-rule="evenodd" d="M221.087 156.77V156.77L222.11 170.671V170.671C220.087 170.82 218.326 169.301 218.177 167.278L217.693 160.697C217.547 158.676 219.066 156.919 221.087 156.77Z" fill="#054546"/>
<path fill-rule="evenodd" clip-rule="evenodd" d="M277.788 174.174L282.388 174.782C283.252 174.902 284.128 174.672 284.822 174.143C285.515 173.614 285.969 172.83 286.083 171.966L287.878 158.247C288.107 156.441 286.833 154.79 285.027 154.552L280.432 153.944C280.104 153.899 279.771 153.987 279.507 154.187C279.243 154.388 279.07 154.686 279.026 155.015L276.706 172.768C276.662 173.098 276.752 173.432 276.955 173.696C277.158 173.96 277.457 174.132 277.788 174.174V174.174Z" fill="#DDF3F4"/>
<path fill-rule="evenodd" clip-rule="evenodd" d="M286.082 172V172L287.878 158.248V158.248C289.882 158.512 291.296 160.347 291.041 162.353L290.192 168.864C289.922 170.865 288.082 172.269 286.082 172Z" fill="#054546"/>
<path fill-rule="evenodd" clip-rule="evenodd" d="M259.891 124.462C263.214 124.968 266.486 125.901 269.542 127.36C279.089 131.918 284.802 140.655 284.763 154.545C284.762 154.856 284.51 155.106 284.2 155.105C283.89 155.105 283.639 154.852 283.64 154.542C283.677 141.094 278.22 132.748 269.058 128.373C266.11 126.966 262.942 126.063 259.722 125.572C257.569 125.244 255.7 125.14 254.285 125.166L253.964 125.175C241.146 124.712 233.113 129.982 228.797 139.103C227.406 142.044 226.5 145.208 225.989 148.409C225.802 149.582 225.68 150.695 225.61 151.724L225.586 152.126L225.568 152.496L225.555 152.832L225.547 153.272L225.548 153.499C225.554 153.809 225.308 154.065 224.997 154.072C224.687 154.078 224.431 153.832 224.425 153.521L224.424 153.402L224.426 153.121L224.433 152.804L224.445 152.452C224.448 152.391 224.451 152.328 224.454 152.264L224.476 151.862C224.48 151.792 224.485 151.721 224.49 151.649C224.562 150.587 224.688 149.44 224.88 148.232C225.406 144.933 226.341 141.668 227.782 138.622C232.284 129.109 240.722 123.573 253.956 124.052L254.264 124.043C255.739 124.016 257.671 124.123 259.891 124.462Z" fill="#102030"/>
<path fill-rule="evenodd" clip-rule="evenodd" d="M224.064 173.44C224.348 173.49 224.544 173.745 224.527 174.025L224.506 174.2C224.445 174.795 224.49 175.586 224.732 176.504C225.095 177.881 225.836 179.25 227.052 180.549C228.288 181.868 229.925 183.036 231.995 184.027L232.415 184.223C232.556 184.287 232.7 184.351 232.846 184.414L233.289 184.6C234.337 185.028 235.48 185.417 236.723 185.764L237.262 185.91L237.813 186.05C237.906 186.073 237.999 186.096 238.093 186.119L238.663 186.251C239.142 186.36 239.635 186.462 240.141 186.559L240.754 186.673C240.857 186.692 240.961 186.71 241.065 186.728L241.697 186.833C241.803 186.851 241.91 186.867 242.018 186.884L242.669 186.981C242.997 187.028 243.331 187.073 243.669 187.116L244.352 187.199L245.048 187.276L245.757 187.347C245.876 187.359 245.996 187.37 246.116 187.381L246.845 187.443L247.586 187.5C247.711 187.509 247.836 187.517 247.962 187.526L248.724 187.573C248.852 187.581 248.98 187.588 249.109 187.595L249.891 187.633C250.153 187.645 250.418 187.656 250.685 187.666L251.493 187.692L252.315 187.712L253.15 187.726C253.431 187.729 253.714 187.732 253.999 187.733C254.309 187.735 254.559 187.987 254.558 188.297C254.556 188.608 254.304 188.858 253.993 188.856C253.557 188.854 253.126 188.849 252.7 188.842L251.855 188.825C251.575 188.818 251.298 188.81 251.023 188.801L250.205 188.771C250.07 188.765 249.935 188.759 249.801 188.753L249.003 188.713L248.218 188.667C247.699 188.634 247.189 188.597 246.687 188.556L245.942 188.492C245.819 188.48 245.696 188.469 245.574 188.457L244.849 188.383C244.729 188.37 244.609 188.357 244.491 188.344L243.784 188.261C243.551 188.232 243.32 188.202 243.091 188.172L242.41 188.077C242.185 188.044 241.963 188.01 241.742 187.976L241.087 187.869C233.951 186.661 229.114 184.393 226.233 181.317C224.886 179.879 224.055 178.344 223.646 176.79C223.368 175.734 223.315 174.808 223.389 174.086L223.402 173.973L223.413 173.895C223.463 173.612 223.718 173.416 223.999 173.432L224.064 173.44Z" fill="#102030"/>
<ellipse cx="253.152" cy="187.991" rx="4.17253" ry="6.12682" transform="rotate(-88.81 253.152 187.991)" fill="#102030"/>
<path fill-rule="evenodd" clip-rule="evenodd" d="M181.616 233.53L175.911 241.645L169.329 212.027L136.196 215.318C136.196 215.318 132.029 288.379 167.79 287.06C167.79 287.06 189.725 288.379 207.718 258.318L181.616 233.53Z" fill="#FFDEB7"/>
<path fill-rule="evenodd" clip-rule="evenodd" d="M168.946 206.377C168.946 206.377 168.121 201.11 170.755 194.365L176.786 181.696C176.786 181.696 181.065 174.132 175.91 171.745C175.91 171.745 171.417 169.353 167.133 178.074V157.178C167.133 157.178 167.464 149.282 161.517 149.113C161.517 149.113 156.249 149.113 156.086 156.683V165.803C156.086 165.803 151.538 162.226 148.134 168.611C148.134 168.611 143.31 165.208 139.149 171.133C139.149 171.133 133.309 169.049 131.001 174.643C131.001 174.643 127.524 181.881 134.432 189.013C134.432 189.013 132.747 198.998 135.342 207.939L168.946 206.377Z" fill="#FFDEB7"/>
<path fill-rule="evenodd" clip-rule="evenodd" d="M133.235 208.354L134.061 219.541C134.061 219.541 166.273 214.936 171.889 213.925L170.766 203.559C170.766 203.559 144.265 205.884 133.235 208.354Z" fill="#102030"/>
<path fill-rule="evenodd" clip-rule="evenodd" d="M267.139 390.019L283.599 542.875C283.599 542.875 307.275 558.948 326.947 543.903L305.708 384.229L267.139 390.019Z" fill="#FFDEB7"/>
<path fill-rule="evenodd" clip-rule="evenodd" d="M283.604 542.875L326.952 543.891L328.929 565.164H261.989L261.882 559.379C262.307 554.779 268.366 550.425 273.976 547.346L274.597 547.009L275.213 546.683L275.821 546.368L276.42 546.064L277.008 545.772L277.583 545.493L278.143 545.225L278.687 544.971L279.212 544.729L279.961 544.391L280.657 544.085L281.295 543.81L281.685 543.646L282.523 543.3L282.921 543.14L283.604 542.875ZM176.899 540.432L213.923 543.515L210.644 564.731L147.972 563.574V557.784C148.464 553.359 155.978 548.935 163.224 545.66L164.075 545.281C164.357 545.156 164.639 545.033 164.92 544.912L165.758 544.555C166.036 544.437 166.312 544.322 166.585 544.209L167.4 543.876L168.199 543.556L168.979 543.248C169.108 543.198 169.235 543.149 169.362 543.1L170.11 542.813L170.833 542.54L171.529 542.282L172.194 542.039L173.13 541.703L173.708 541.499L174.744 541.141L175.786 540.791L176.696 540.496L176.899 540.432Z" fill="#102030"/>
<path fill-rule="evenodd" clip-rule="evenodd" d="M329.757 558.481C330.067 558.48 330.32 558.73 330.321 559.04C330.323 559.328 330.107 559.567 329.828 559.6L329.763 559.605L261.885 559.942C261.575 559.943 261.322 559.693 261.32 559.383C261.319 559.095 261.535 558.856 261.814 558.822L261.879 558.818L329.757 558.481Z" fill="white"/>
<path fill-rule="evenodd" clip-rule="evenodd" d="M281.239 520.911L283.604 542.875C283.604 542.875 307.28 558.947 326.952 543.902L323.476 517.761" fill="white"/>
<path fill-rule="evenodd" clip-rule="evenodd" d="M196.941 392.714L176.887 540.409C176.887 540.409 195.419 556.993 213.912 543.492L237.824 389.996L196.941 392.714Z" fill="#FFDEB7"/>
<path fill-rule="evenodd" clip-rule="evenodd" d="M147.979 557.224L211.595 558.055C211.905 558.059 212.153 558.314 212.149 558.624C212.145 558.912 211.925 559.146 211.645 559.175L211.58 559.178L147.964 558.347C147.654 558.343 147.406 558.088 147.41 557.778C147.414 557.49 147.634 557.255 147.914 557.227L147.979 557.224Z" fill="white"/>
<path fill-rule="evenodd" clip-rule="evenodd" d="M180.268 515.571L176.898 540.415C176.898 540.415 195.431 556.999 213.923 543.499L218 517.307" fill="white"/>
<path fill-rule="evenodd" clip-rule="evenodd" d="M296.717 294.242L206.595 298.156L192.325 396.96H244.518L250.179 342.195L256.733 341.42L263.803 395.192L310.341 392.333L296.717 294.242V294.242Z" fill="#102030"/>
<path fill-rule="evenodd" clip-rule="evenodd" d="M232.107 202.497L275.798 203.682L276.165 203.729V203.729L276.612 203.79V203.79L277.002 203.847V203.847L277.465 203.917V203.917L277.997 204.001V204.001L278.597 204.1V204.1L279.262 204.214C279.378 204.234 279.497 204.255 279.618 204.277L280.377 204.416C280.772 204.489 281.189 204.569 281.628 204.655L282.532 204.837C293.878 207.165 317.342 213.635 335.528 229.627L306.674 255.813L292.41 242.807L292.611 245.901V245.901L292.902 250.175V250.175L293.216 254.601V254.601L293.543 259.053V259.053L293.859 263.199V263.199L294.086 266.093V266.093L294.326 269.063V269.063L294.513 271.327V271.327L294.773 274.376V274.376L295.042 277.438V277.438L295.181 278.967V278.967L295.321 280.491V280.491L295.535 282.761V282.761L295.681 284.259V284.259L295.828 285.742V285.742L296.052 287.931V287.931L296.203 289.363V289.363L296.356 290.77V290.77L296.51 292.148V292.148L296.666 293.496V293.496L296.822 294.809C296.848 295.025 296.874 295.24 296.901 295.452L297.059 296.71C297.085 296.916 297.111 297.12 297.138 297.323L297.297 298.517C297.377 299.103 297.457 299.672 297.537 300.223L204.343 301.649L212.09 255.365L205.685 260.8L179.853 234.44C187.135 223.566 198.226 215.665 206.054 211.033L206.825 210.581C206.952 210.507 207.078 210.434 207.202 210.363L207.938 209.943V209.943L208.649 209.545V209.545L209.332 209.17V209.17L209.986 208.816V208.816L210.61 208.485V208.485L211.202 208.176V208.176L211.76 207.889V207.889L212.283 207.625V207.625L212.77 207.383V207.383L213.427 207.062V207.062L213.993 206.792V206.792L214.719 206.455V206.455L215.261 206.214V206.214L215.26 206.209L215.977 205.924V205.924L216.542 205.71V205.71L217.249 205.454V205.454L218.087 205.163V205.163L218.551 205.008V205.008L219.043 204.849V204.849L219.739 204.631V204.631L220.29 204.464V204.464L220.67 204.353V204.353L221.258 204.186V204.186L221.866 204.021V204.021L222.493 203.857V203.857L222.92 203.75V203.75L223.574 203.594V203.594L224.018 203.493V203.493L224.696 203.346V203.346L225.154 203.253V203.253L225.617 203.163V203.163L226.085 203.077V203.077L226.556 202.996V202.996L227.031 202.919C227.11 202.907 227.19 202.895 227.269 202.883L227.748 202.815V202.815L228.23 202.752C228.391 202.732 228.552 202.713 228.713 202.695L229.197 202.645C229.278 202.637 229.359 202.629 229.44 202.622L229.926 202.582V202.582L230.412 202.549C230.979 202.515 231.545 202.497 232.107 202.497Z" fill="#00ACB1"/>
<path opacity="0.1" fill-rule="evenodd" clip-rule="evenodd" d="M215.259 206.214C215.241 206.389 215.221 206.564 215.199 206.738L215.132 207.26V207.26L215.058 207.779C215.019 208.037 214.978 208.294 214.935 208.55L214.845 209.06V209.06L214.75 209.565C214.734 209.648 214.718 209.732 214.701 209.815L214.598 210.313C214.581 210.396 214.563 210.478 214.546 210.56L214.436 211.05V211.05L214.323 211.534V211.534L214.206 212.011V212.011L214.086 212.482C214.066 212.56 214.045 212.638 214.025 212.715L213.9 213.176C213.879 213.252 213.858 213.328 213.837 213.403L213.709 213.852V213.852L213.514 214.511V214.511L213.383 214.939V214.939L213.25 215.359V215.359L213.117 215.769V215.769L212.917 216.366V216.366L212.652 217.125V217.125L212.456 217.666V217.666L212.2 218.347V218.347L212.015 218.825V218.825L211.778 219.418V219.418L211.556 219.956V219.956L211.352 220.438V220.438L211.007 221.216V221.216L210.712 221.851V221.851L210.655 221.967L210.272 222.41V222.41L209.905 222.843V222.843L209.553 223.267V223.267L209.216 223.682V223.682L208.893 224.088C208.841 224.155 208.789 224.221 208.737 224.287L208.436 224.679C208.387 224.744 208.339 224.808 208.291 224.872L208.01 225.25V225.25L207.743 225.619C207.7 225.68 207.657 225.741 207.614 225.801L207.367 226.157V226.157L207.131 226.504V226.504L206.908 226.842V226.842L206.697 227.172V227.172L206.498 227.493V227.493L206.31 227.805V227.805L206.132 228.108V228.108L205.966 228.404V228.404L205.81 228.69V228.69L205.664 228.969V228.969L205.527 229.239V229.239L205.4 229.501V229.501L205.282 229.754V229.754L205.173 230V230L205.072 230.237C205.056 230.276 205.04 230.314 205.025 230.353L204.895 230.688V230.688L204.818 230.901V230.901L204.747 231.106V231.106L204.684 231.304V231.304L204.628 231.494V231.494L204.577 231.676V231.676L204.513 231.935V231.935L204.46 232.178V232.178L204.432 232.33V232.33L204.408 232.474V232.474L204.388 232.612V232.612L204.366 232.804V232.804L204.352 232.98V232.98L204.344 233.19V233.19L204.344 233.298C204.345 233.397 204.351 233.483 204.358 233.557L204.374 233.689C204.376 233.708 204.379 233.726 204.382 233.743L204.4 233.828V233.828L204.421 233.905C204.197 238.181 205.679 241.732 207.47 244.409L207.722 244.777C208.017 245.199 208.319 245.598 208.622 245.974L208.881 246.289C208.968 246.393 209.054 246.494 209.14 246.593L209.397 246.885V246.885L209.652 247.165V247.165L209.904 247.433C209.945 247.477 209.987 247.52 210.028 247.562L210.273 247.812C210.314 247.852 210.354 247.892 210.394 247.932L210.631 248.163V248.163L210.862 248.382V248.382L211.085 248.588V248.588L211.404 248.873V248.873L211.701 249.13V249.13L211.974 249.357V249.357L212.296 249.615V249.615L212.62 249.863V249.863L212.969 250.113L212.09 255.365L205.685 260.8L179.853 234.439C186.716 224.191 196.964 216.583 204.673 211.864L205.475 211.378C206.003 211.061 206.517 210.758 207.016 210.47L207.752 210.048V210.048L208.464 209.648V209.648L209.149 209.269V209.269L209.806 208.913V208.913L210.434 208.578V208.578L211.03 208.265V208.265L211.864 207.836V207.836L212.376 207.578V207.578L213.076 207.232V207.232L213.688 206.936V206.936L214.502 206.554V206.554L215.259 206.214Z" fill="#000001"/>
<path fill-rule="evenodd" clip-rule="evenodd" d="M232.102 202.497C232.102 202.497 256.682 201.071 275.798 203.682C275.798 203.682 270.929 214.846 252.773 214.251C252.762 214.251 235.898 213.774 232.102 202.497Z" fill="#FFDEB7"/>
<path fill-rule="evenodd" clip-rule="evenodd" d="M308.29 254.342C312.379 257.672 315.793 263.012 314.676 268.454C313.704 273.143 310.02 276.838 306.364 279.652C301.114 283.706 294.543 285.621 289.152 289.474C284.727 292.63 279.661 299.695 283.705 304.44C290.168 312.033 305.786 313.785 314.524 310.174C334.23 302.031 348.393 284.616 348.629 262.754C348.629 262.754 349.752 244.345 333.646 231.485L308.29 254.342Z" fill="#FFDEB7"/>
<path fill-rule="evenodd" clip-rule="evenodd" d="M277.404 297.547H254.118C251.074 297.547 248.606 300.013 248.604 303.056L248.604 358.85C248.606 361.893 251.074 364.359 254.118 364.359H274.822C273.392 364.359 271.916 355.778 271.859 354.797C271.404 346.964 279.944 341.584 286.873 344.987C294.159 348.544 290.529 358.881 288.144 364.375H315.612C318.655 364.375 321.123 361.909 321.126 358.865V337.299C321.126 339.364 333.213 339.813 334.499 339.565C342.982 337.944 345.342 324.633 338.449 319.64C333.477 316.026 326.222 319.32 321.56 321.799L321.044 302.922C320.965 299.937 318.521 297.559 315.535 297.562H291.205C291.205 297.562 299.064 316.341 283.977 316.992C283.977 316.976 268.911 318.272 277.404 297.547Z" fill="#A4DEE0"/>
<path fill-rule="evenodd" clip-rule="evenodd" d="M281.458 287.076C281.458 287.076 271.838 282.69 269.957 294.377C269.957 294.377 268.272 305.457 275.079 305.563C275.079 305.563 278.448 305.389 278.948 303.997C278.948 303.997 279.993 306.507 284.384 305.563C284.384 305.563 287.192 305.041 287.726 302.323C287.726 302.323 289.085 305.878 293.998 305.041C295.551 304.792 296.843 303.715 297.368 302.233C297.368 302.233 298.755 305.49 302.804 304.536C302.804 304.536 308.762 303.491 308.762 293.664H315.872C315.872 293.664 315.344 285.931 307.297 285.408C304.541 285.215 301.899 286.536 300.4 288.856C299.739 286.74 297.959 285.164 295.779 284.763C293.77 284.515 291.78 285.351 290.55 286.958C290.55 286.958 289.242 284.341 285.378 285.128C285.378 285.144 283.879 285.094 281.458 287.076Z" fill="#FFDEB7"/>
<path d="M175.91 241.645L177.668 250.972" stroke="#000001" stroke-width="2" stroke-linecap="round" stroke-linejoin="round"/>
<path d="M148.157 168.589C148.157 168.589 145.304 174.733 149.252 182.19C150.565 183.553 152.61 183.907 154.306 183.066C154.306 183.066 158.591 181.533 156.507 170.891" stroke="#000001" stroke-width="2" stroke-linecap="round" stroke-linejoin="round"/>
<path d="M167.133 178.062C167.133 178.062 165.6 181.134 164.28 183.521C164.28 183.521 156.586 183.493 147.163 190.513" stroke="#000001" stroke-width="2" stroke-linecap="round" stroke-linejoin="round"/>
<path d="M139.161 171.11C137.507 175.636 138.476 180.705 141.682 184.302C142.91 185.703 144.869 186.213 146.624 185.588C146.624 185.588 149.365 184.712 149.252 182.218" stroke="#000001" stroke-width="2" stroke-linecap="round" stroke-linejoin="round"/>
<path d="M134.443 188.991C134.443 188.991 136.97 190.305 139.054 188.991C139.054 188.991 142.783 187.306 141.682 184.302" stroke="#000001" stroke-width="2" stroke-linecap="round" stroke-linejoin="round"/>
<path d="M261.882 559.38L329.76 559.043" stroke="white" stroke-width="2" stroke-linecap="round" stroke-linejoin="round"/>
<path d="M147.972 557.785L211.587 558.616" stroke="white" stroke-width="2" stroke-linecap="round" stroke-linejoin="round"/>
<path d="M277.578 250.585C277.578 250.585 255.491 259.137 249.791 238.713" stroke="#000001" stroke-width="2" stroke-linecap="round" stroke-linejoin="round"/>
<path d="M278.932 304.013C278.932 304.013 276.006 300.459 277.051 293.978C277.051 293.978 277.679 290.316 281.442 287.076" stroke="#000001" stroke-width="2" stroke-linecap="round" stroke-linejoin="round"/>
<path d="M297.346 302.233C297.346 302.233 295.201 296.118 300.378 288.856" stroke="#000001" stroke-width="2" stroke-linecap="round" stroke-linejoin="round"/>
<path d="M308.741 293.664V291.519" stroke="#000001" stroke-width="2" stroke-linecap="round" stroke-linejoin="round"/>
<path d="M315.85 293.664C315.85 293.664 315.322 285.931 307.275 285.408C304.519 285.215 301.877 286.536 300.378 288.856C299.721 286.746 297.951 285.171 295.779 284.763C293.77 284.515 291.781 285.351 290.551 286.958C290.551 286.958 289.242 284.341 285.379 285.128C285.379 285.128 283.879 285.077 281.448 287.059C281.448 287.059 271.828 282.673 269.946 294.36C269.946 294.36 268.262 305.44 275.068 305.547C275.068 305.547 278.437 305.372 278.937 303.98C278.937 303.98 279.982 306.49 284.373 305.547C284.373 305.547 287.181 305.024 287.715 302.306C287.715 302.306 289.074 305.861 293.988 305.024C295.54 304.775 296.832 303.698 297.357 302.216C297.357 302.216 298.744 305.474 302.793 304.519C302.793 304.519 308.751 303.474 308.751 293.647" stroke="#000001" stroke-width="2" stroke-linecap="round" stroke-linejoin="round"/>
<path d="M281.24 520.912L283.604 542.876C283.604 542.876 307.281 558.948 326.953 543.903L323.477 517.762" stroke="#000001" stroke-width="2" stroke-linecap="round" stroke-linejoin="round"/>
<path d="M180.268 515.571L176.898 540.415C176.898 540.415 195.431 556.999 213.923 543.499L218 517.307" stroke="#000001" stroke-width="2" stroke-linecap="round" stroke-linejoin="round"/>
<path d="M290.551 286.976C290.551 286.976 287.468 289.587 287.047 294.916C286.741 297.411 286.973 299.943 287.727 302.34" stroke="#000001" stroke-width="2" stroke-linecap="round" stroke-linejoin="round"/>
<path fill-rule="evenodd" clip-rule="evenodd" d="M138.666 300.357L138.605 324.02C138.605 324.02 139.042 332.267 130.79 332.267C130.79 332.267 122.106 332.923 122.325 322.932V300.357L106.056 313.821V335.139L120.602 350.118V415.676C120.602 415.676 119.52 426.75 131.026 426.531C131.026 426.531 141.011 427.619 141.011 415.025V350.286L155.558 333.574V313.821L138.666 300.357ZM133.831 414.873C133.762 416.442 132.47 417.679 130.899 417.679C129.329 417.679 128.037 416.442 127.968 414.873V410.099C127.921 409.022 128.469 408.005 129.395 407.452C130.322 406.899 131.477 406.899 132.403 407.452C133.33 408.005 133.878 409.022 133.831 410.099V414.873Z" fill="#00ACB1"/>
<path fill-rule="evenodd" clip-rule="evenodd" d="M87.0673 360.043L72.4568 360.449L70.9629 378.388L74.9487 389.605L75.4446 437.693H83.1716L83.6674 389.103L87.6532 378.89L87.0673 360.043V360.043Z" fill="white"/>
<path fill-rule="evenodd" clip-rule="evenodd" d="M87.0673 360.043L72.4568 360.449L70.9629 378.388L74.9487 389.605L75.4446 437.693H83.1716L83.6674 389.103L87.6532 378.89L87.0673 360.043V360.043Z" stroke="#000001" stroke-width="2" stroke-linecap="round" stroke-linejoin="round"/>
<path fill-rule="evenodd" clip-rule="evenodd" d="M85.1573 436.45C87.6383 436.45 89.6496 438.461 89.6496 440.942V442.924C89.6496 445.065 88.1513 446.857 86.1458 447.307C88.2704 448.868 89.6496 451.384 89.6496 454.223V509.83C89.6496 514.567 85.809 518.408 81.0715 518.408H77.2939C72.5564 518.408 68.7158 514.567 68.7158 509.83V454.223C68.7158 451.384 70.095 448.868 72.2198 447.306C70.2141 446.857 68.7158 445.065 68.7158 442.924V440.942C68.7158 438.461 70.7271 436.45 73.2081 436.45H85.1573Z" fill="#054546"/>
<path d="M75.445 458.356V506.695" stroke="#000001" stroke-width="2" stroke-linecap="round" stroke-linejoin="round"/>
<path d="M83.1716 458.356V506.695" stroke="#000001" stroke-width="2" stroke-linecap="round" stroke-linejoin="round"/>
<path d="M74.2021 447.416H84.17" stroke="#000001" stroke-width="2" stroke-linecap="round" stroke-linejoin="round"/>
<path fill-rule="evenodd" clip-rule="evenodd" d="M391.142 170.462L393.707 160.691L386.369 159.201C386.282 155.889 385.58 152.623 384.3 149.567L389.625 145.38L382.275 136.513L377.663 140.166C375.019 137.767 371.919 135.926 368.548 134.753L368.741 127.299H357.314L356.967 133.368C353.336 133.725 349.81 134.79 346.588 136.502L342.174 132.292L333.898 138.472L337.953 143.62C336.074 145.902 334.564 148.466 333.479 151.217L326.665 150.842L325.616 161.226L331.564 161.656C331.59 164.754 332.15 167.825 333.219 170.732L327.603 174.992L333.672 184.675L340.177 181.105C342.967 183.662 346.273 185.593 349.871 186.766L349.071 192.609L360.156 194.127L360.967 187.969C364.638 187.608 368.201 186.522 371.45 184.774L375.765 190.044L384.863 184.09L379.952 177.784C382.047 175.251 383.682 172.372 384.786 169.276L391.142 170.462ZM359.438 169.474C356.169 169.477 353.219 167.509 351.967 164.488C350.714 161.468 351.404 157.991 353.715 155.678C356.027 153.365 359.504 152.672 362.525 153.923C365.546 155.174 367.516 158.122 367.516 161.391C367.516 165.853 363.9 169.471 359.438 169.474Z" fill="#00ACB1"/>
<path fill-rule="evenodd" clip-rule="evenodd" d="M368.893 361.833L336.743 363.781C334.224 363.931 332.258 366.018 332.26 368.542V393.579C332.26 393.579 348.245 384.255 350.576 399.353C350.576 399.353 352.676 415.56 332.26 410.903V434.107C332.26 435.372 332.763 436.586 333.658 437.48C334.553 438.374 335.767 438.875 337.032 438.874H364.457C364.457 438.874 352.687 458.981 371.339 458.697C371.339 458.697 389.099 461.075 381.55 439.1L404.754 438.727C407.3 438.686 409.364 436.652 409.443 434.107L410.188 410.305C410.188 410.305 431.502 422.447 432.389 403.133C432.389 403.133 433.282 384.927 410.865 393.584L411.243 366.673C411.261 365.397 410.767 364.167 409.871 363.258C408.975 362.35 407.753 361.838 406.476 361.838H382.327C383.902 365.56 384.795 370.275 383.766 374.233C381.776 381.866 370.457 384.402 365.958 377.425C362.803 372.553 366.189 366.091 368.893 361.833Z" fill="#054546"/>
<path fill-rule="evenodd" clip-rule="evenodd" d="M104.425 65.0894C104.425 65.0894 78.2804 70.2933 81.206 92.493C81.206 92.493 81.5655 103.49 92.1913 107.743C92.1913 107.743 98.9996 109.307 100.452 115.372L119.413 112.029C119.413 112.029 118.79 107.388 126.196 102.337C126.196 102.337 135.155 96.0068 132.961 83.5632C132.966 83.5593 130.482 60.4949 104.425 65.0894Z" fill="#DDF3F4"/>
<path d="M119.414 112.035L117.602 86.0816C111.236 92.549 109.712 83.9096 109.712 83.9096C106.962 94.0746 101.259 86.3888 101.259 86.3888C100.341 94.6512 94.066 89.2755 94.066 89.2755L100.449 115.373" stroke="#000001" stroke-width="2" stroke-linecap="round" stroke-linejoin="round"/>
<path d="M110.413 113.613L107.845 99.0527" stroke="#000001" stroke-width="2" stroke-linecap="round" stroke-linejoin="round"/>
<path fill-rule="evenodd" clip-rule="evenodd" d="M100.453 115.377L101.814 124.224C101.814 124.224 102.038 129.419 112.098 127.645C112.098 127.645 121.067 126.429 120.23 120.552L119.414 112.034L100.453 115.377Z" fill="#00ACB1"/>
<path d="M101.221 120.371L119.734 115.346" stroke="white" stroke-width="3" stroke-linecap="round" stroke-linejoin="round"/>
<path d="M103.387 126.749L120.228 120.543" stroke="white" stroke-width="3" stroke-linecap="round" stroke-linejoin="round"/>
<path d="M51.4707 564.505H444.471" stroke="black" stroke-width="2" stroke-linecap="round" stroke-linejoin="round"/>
<path fill-rule="evenodd" clip-rule="evenodd" d="M25.7362 53.5682L39.4925 148.569C39.7178 150.125 40.5636 151.523 41.8369 152.444C43.1102 153.366 44.7026 153.733 46.2508 153.461L185.389 128.927C188.548 128.366 190.657 125.354 190.104 122.193L173.443 27.7048C172.885 24.5433 169.87 22.4323 166.709 22.9898L30.4757 47.0114C27.3825 47.5554 25.2827 50.4604 25.7362 53.5682V53.5682Z" stroke="white" stroke-width="2" stroke-linecap="round" stroke-linejoin="round"/>
<path fill-rule="evenodd" clip-rule="evenodd" d="M166.716 22.948L30.6659 46.9373C27.5784 47.4803 25.4724 50.3276 25.9112 53.3656L27.5803 64.9401L174.903 35.9862L173.414 27.5389C173.154 26.0546 172.302 24.7367 171.045 23.8756C169.789 23.0144 168.232 22.6808 166.716 22.948Z" stroke="white" stroke-width="2" stroke-linecap="round" stroke-linejoin="round"/>
<ellipse cx="35.8694" cy="54.7493" rx="2.03016" ry="2.03015" transform="rotate(-10 35.8694 54.7493)" fill="white"/>
<ellipse cx="46.9856" cy="52.7894" rx="2.03015" ry="2.03015" transform="rotate(-10 46.9856 52.7894)" fill="white"/>
<ellipse cx="58.1028" cy="50.8294" rx="2.03016" ry="2.03015" transform="rotate(-10 58.1028 50.8294)" fill="white"/>
<path d="M394.385 231.531L416.407 268.749L386.035 299.533" stroke="#000001" stroke-width="2" stroke-linecap="round" stroke-linejoin="round"/>
<circle cx="394.776" cy="231.58" r="11.89" transform="rotate(97 394.776 231.58)" fill="#A4DEE0"/>
<circle cx="416.439" cy="268.495" r="11.58" transform="rotate(97 416.439 268.495)" fill="#A4DEE0"/>
<circle cx="386.833" cy="300.123" r="11.42" transform="rotate(97 386.833 300.123)" fill="#A4DEE0"/>
<path d="M211.419 425.792L173.103 469.87L143.858 444.449" stroke="#000001" stroke-width="2" stroke-linecap="round" stroke-linejoin="round"/>
<circle cx="211.154" cy="426.097" r="11.89" transform="rotate(-139 211.154 426.097)" fill="#054546"/>
<circle cx="173.103" cy="469.87" r="11.58" transform="rotate(-139 173.103 469.87)" fill="#054546"/>
<circle cx="143.669" cy="444.284" r="11.42" transform="rotate(-139 143.669 444.284)" fill="#054546"/>
<path d="M363.993 505.706L412.878 472.733" stroke="#000001" stroke-width="2" stroke-linecap="round" stroke-linejoin="round"/>
<circle cx="364.173" cy="506.035" r="15" transform="rotate(56 364.173 506.035)" fill="#DDF3F4"/>
<circle cx="412.913" cy="472.786" r="11.58" transform="rotate(56 412.913 472.786)" fill="#DDF3F4"/>
<path d="M112.653 269.571L88.6691 215.703" stroke="#000001" stroke-width="2" stroke-linecap="round" stroke-linejoin="round"/>
<circle cx="113.008" cy="269.451" r="15" transform="rotate(-24 113.008 269.451)" fill="#A4DEE0"/>
<circle cx="88.7283" cy="215.677" r="11.58" transform="rotate(-24 88.7283 215.677)" fill="#A4DEE0"/>
</g>
</svg>
