<svg width="30" height="30" viewBox="0 0 30 30" fill="none" xmlns="http://www.w3.org/2000/svg">
<path d="M3.12778 30H26.8842C27.9818 30 28.9792 29.4381 29.5528 28.4888C30.1139 27.552 30.1515 26.4031 29.64 25.4287L17.0448 1.24881C16.6456 0.487185 15.8726 0 14.9993 0C14.1387 0 13.3532 0.474646 12.9539 1.24881L0.35869 25.4287C-0.152794 26.4031 -0.115222 27.552 0.458378 28.4888C1.03198 29.4381 2.02994 30 3.12757 30H3.12778ZM13.7527 11.2652H16.247V20.0079H13.7527V11.2652ZM14.9996 22.5061C15.6854 22.5061 16.2465 23.068 16.2465 23.7549C16.2465 24.4418 15.6854 25.0037 14.9996 25.0037C14.3138 25.0037 13.7527 24.4418 13.7527 23.7549C13.7527 23.068 14.3138 22.5061 14.9996 22.5061Z" fill="#F29304"/>
</svg>
